<svg width="89" height="89" viewBox="0 0 89 89" fill="none" xmlns="http://www.w3.org/2000/svg">
<rect width="89" height="89" rx="8" fill="#E4EEFC"/>
<path d="M45 25.75C48.3137 25.75 51 22.9518 51 19.5C51 16.0482 48.3137 13.25 45 13.25C41.6863 13.25 39 16.0482 39 19.5C39 22.9518 41.6863 25.75 45 25.75Z" fill="#2274AC"/>
<path d="M56.67 32.3438C55.5 31.125 53.49 28.875 49.59 28.875H41.97C33.72 28.8438 27 21.8438 27 13.25H21C21 23.125 27.33 31.5 36 34.2188V75.75H42V57H48V75.75H54V38.4063L65.85 50.75L70.08 46.3438L56.67 32.3438Z" fill="#2274AC"/>
</svg>
