<svg width="49" height="35" viewBox="0 0 49 35" fill="none" xmlns="http://www.w3.org/2000/svg">
<path d="M46.0156 0.03125H2.98438C2.35057 0.0318724 1.74293 0.244432 1.29476 0.6223C0.846594 1.00017 0.594488 1.51249 0.59375 2.04688V32.9531C0.594488 33.4875 0.846594 33.9998 1.29476 34.3777C1.74293 34.7556 2.35057 34.9681 2.98438 34.9688H11.75V30.0286C11.7502 29.7292 11.8452 29.4352 12.0253 29.1772C12.2054 28.9191 12.464 28.7063 12.7744 28.5607L21.9364 24.2672L18.9219 17.9131V12.7969C18.9219 11.5495 19.5096 10.3533 20.5557 9.47126C21.6018 8.58926 23.0206 8.09375 24.5 8.09375C25.9794 8.09375 27.3982 8.58926 28.4443 9.47126C29.4904 10.3533 30.0781 11.5495 30.0781 12.7969V17.9131L27.0636 24.267L36.2256 28.5607C36.536 28.7063 36.7946 28.9191 36.9747 29.1772C37.1548 29.4352 37.2498 29.7292 37.25 30.0286V34.9688H46.0156C46.6494 34.9681 47.2571 34.7556 47.7052 34.3777C48.1534 33.9998 48.4055 33.4875 48.4062 32.9531V2.04688C48.4055 1.51249 48.1534 1.00017 47.7052 0.6223C47.2571 0.244432 46.6494 0.0318724 46.0156 0.03125ZM45.2188 32.2812H40.4375V30.0286C40.4372 29.25 40.1902 28.4856 39.7219 27.8145C39.2536 27.1433 38.5812 26.5899 37.7741 26.2114L31.0658 23.0682L33.2656 18.4306V12.7969C33.2656 10.8368 32.3421 8.95692 30.6982 7.57091C29.0544 6.1849 26.8248 5.40625 24.5 5.40625C22.1752 5.40625 19.9456 6.1849 18.3018 7.57091C16.6579 8.95692 15.7344 10.8368 15.7344 12.7969V18.4306L17.9342 23.0682L11.2259 26.2119C10.4189 26.5903 9.74648 27.1437 9.27823 27.8147C8.80997 28.4857 8.56288 29.2501 8.5625 30.0286V32.2812H3.78125V2.71875H45.2188V32.2812Z" fill="#2274AC"/>
</svg>
