<svg width="89" height="89" viewBox="0 0 89 89" fill="none" xmlns="http://www.w3.org/2000/svg">
<rect width="89" height="89" rx="8" fill="#E4EEFC"/>
<path d="M18 62.3333C18 66.8667 21.5208 70.3333 26.125 70.3333H64.0417C68.6458 70.3333 72.1667 66.8667 72.1667 62.3333V41H18V62.3333ZM64.0417 22.3333H58.625V19.6667C58.625 18.0667 57.5417 17 55.9167 17C54.2917 17 53.2083 18.0667 53.2083 19.6667V22.3333H36.9583V19.6667C36.9583 18.0667 35.875 17 34.25 17C32.625 17 31.5417 18.0667 31.5417 19.6667V22.3333H26.125C21.5208 22.3333 18 25.8 18 30.3333V35.6667H72.1667V30.3333C72.1667 25.8 68.6458 22.3333 64.0417 22.3333Z" fill="#2274AC"/>
</svg>
