<svg width="32" height="33" viewBox="0 0 32 33" fill="none" xmlns="http://www.w3.org/2000/svg">
<path d="M26.9956 1.03617L27.2936 0.728856C27.5179 0.497685 27.7842 0.314336 28.0772 0.189279C28.3702 0.0642212 28.6842 -9.56536e-05 29.0013 1.06775e-07C29.3184 9.58672e-05 29.6324 0.0646024 29.9254 0.189837C30.2183 0.315071 30.4845 0.49858 30.7086 0.729888C30.9328 0.961195 31.1106 1.23577 31.2319 1.53793C31.3531 1.8401 31.4155 2.16394 31.4154 2.49096C31.4153 2.81798 31.3528 3.14178 31.2313 3.44388C31.1099 3.74597 30.9319 4.02043 30.7076 4.25161L30.4096 4.55686C30.9194 5.14645 31.1912 5.91479 31.1692 6.70439C31.1473 7.49399 30.8333 8.24502 30.2916 8.80354L9.70763 30.0329C9.57895 30.1649 9.41786 30.2583 9.24163 30.303L1.24163 32.3655C1.07422 32.4085 0.898864 32.4061 0.732618 32.3586C0.566372 32.311 0.414889 32.2199 0.292893 32.0941C0.170898 31.9682 0.0825403 31.812 0.0364095 31.6406C-0.00972135 31.4691 -0.0120561 31.2883 0.0296321 31.1157L2.02963 22.8657C2.07339 22.6847 2.16394 22.5193 2.29163 22.3872L21.5756 2.50054C21.3828 2.36056 21.1481 2.29538 20.9132 2.31651C20.6782 2.33765 20.4581 2.44374 20.2916 2.61604L13.7076 9.40786C13.6147 9.50374 13.5043 9.5798 13.3828 9.63169C13.2613 9.68358 13.1311 9.71029 12.9996 9.71029C12.8681 9.71029 12.7379 9.68358 12.6165 9.63169C12.495 9.5798 12.3846 9.50374 12.2916 9.40786C12.1987 9.31198 12.1249 9.19815 12.0746 9.07287C12.0243 8.9476 11.9984 8.81333 11.9984 8.67773C11.9984 8.54214 12.0243 8.40787 12.0746 8.28259C12.1249 8.15732 12.1987 8.04349 12.2916 7.94761L18.8796 1.15786C19.4216 0.59895 20.1504 0.275149 20.9166 0.252904C21.6827 0.230659 22.428 0.511657 22.9996 1.03823C23.5492 0.531761 24.2602 0.251619 24.9972 0.251238C25.7343 0.250858 26.4456 0.530266 26.9956 1.03617ZM25.7076 2.61604C25.5201 2.42271 25.2658 2.31411 25.0006 2.31411C24.7355 2.31411 24.4812 2.42271 24.2936 2.61604L3.89963 23.6432L2.37163 29.9483L8.48563 28.3725L28.8796 7.34536C28.9728 7.24956 29.0466 7.13576 29.0971 7.01048C29.1475 6.88519 29.1734 6.75088 29.1734 6.61523C29.1734 6.47959 29.1475 6.34527 29.0971 6.21999C29.0466 6.0947 28.9728 5.9809 28.8796 5.88511L25.7076 2.61604Z" fill="#2274AC"/>
</svg>
