<svg width="34" height="31" viewBox="0 0 34 31" fill="none" xmlns="http://www.w3.org/2000/svg">
<path d="M33.0937 5.285C33.377 5.04299 33.6031 4.75345 33.7587 4.43328C33.9143 4.1131 33.9963 3.76871 33.9999 3.42019C34.0035 3.07167 33.9286 2.726 33.7797 2.40336C33.6308 2.08072 33.4107 1.78756 33.1324 1.54099C32.8541 1.29443 32.5231 1.09939 32.1587 0.967257C31.7944 0.835127 31.4039 0.768552 31.0102 0.771415C30.6164 0.774278 30.2272 0.846522 29.8654 0.983934C29.5035 1.12135 29.1762 1.32117 28.9025 1.57175L17.0168 12.0886L5.13507 1.57175C4.86358 1.31387 4.53619 1.10702 4.17243 0.963559C3.80866 0.820097 3.41598 0.742955 3.0178 0.736737C2.61962 0.730518 2.22411 0.795351 1.85486 0.927366C1.4856 1.05938 1.15017 1.25587 0.868572 1.50512C0.586974 1.75437 0.36498 2.05127 0.215831 2.3781C0.0666832 2.70494 -0.00656387 3.05502 0.000461508 3.40746C0.00748688 3.7599 0.0946406 4.10747 0.256722 4.42944C0.418804 4.75142 0.652493 5.0412 0.943849 5.28151L12.8177 15.8018L0.935942 26.3186C0.412118 26.8162 0.126943 27.4743 0.140498 28.1543C0.154053 28.8343 0.46528 29.4831 1.00861 29.964C1.55194 30.4449 2.28495 30.7204 3.05321 30.7324C3.82147 30.7444 4.56501 30.492 5.12716 30.0284L17.0168 19.5116L28.8985 30.0319C29.4607 30.4955 30.2042 30.7479 30.9725 30.7359C31.7407 30.7239 32.4737 30.4485 33.0171 29.9675C33.5604 29.4866 33.8716 28.8378 33.8852 28.1578C33.8987 27.4778 33.6136 26.8197 33.0897 26.3221L21.2159 15.8018L33.0937 5.285Z" fill="#313A70"/>
</svg>
