<svg width="59" height="59" viewBox="0 0 59 59" fill="none" xmlns="http://www.w3.org/2000/svg">
<path d="M29.5 0C32.208 0 34.82 0.345703 37.3359 1.03711C39.8519 1.72852 42.2046 2.71761 44.394 4.00439C46.5835 5.29118 48.5713 6.82764 50.3574 8.61377C52.1436 10.3999 53.68 12.3973 54.9668 14.606C56.2536 16.8146 57.2427 19.1673 57.9341 21.6641C58.6255 24.1608 58.9808 26.7728 59 29.5C59 31.4014 58.8175 33.2739 58.4526 35.1177C58.0877 36.9614 57.55 38.7764 56.8394 40.5625H47.9375V36.875H54.2178C54.9476 34.4551 55.3125 31.9967 55.3125 29.5C55.3125 26.9456 54.9572 24.4873 54.2466 22.125H43.7891C43.9427 23.3542 44.0579 24.5737 44.1348 25.7837C44.2116 26.9937 44.25 28.2324 44.25 29.5H40.5625C40.5625 28.2516 40.5241 27.0225 40.4473 25.8125C40.3704 24.6025 40.2456 23.3734 40.0728 22.125H18.9272C18.7736 23.3542 18.6584 24.5737 18.5815 25.7837C18.5047 26.9937 18.4567 28.2324 18.4375 29.5C18.4375 30.7484 18.4759 31.9775 18.5527 33.1875C18.6296 34.3975 18.7544 35.6266 18.9272 36.875H36.875V40.5625H19.561C19.7147 41.3115 19.9355 42.195 20.2236 43.2129C20.5117 44.2308 20.867 45.2871 21.2896 46.3818C21.7121 47.4766 22.1922 48.5521 22.73 49.6084C23.2677 50.6647 23.8919 51.625 24.6025 52.4893C25.3132 53.3535 26.0622 54.0353 26.8496 54.5347C27.637 55.034 28.5205 55.2933 29.5 55.3125C30.0762 55.3125 30.6235 55.2069 31.1421 54.9956C31.6606 54.7843 32.1504 54.4963 32.6113 54.1313C33.0723 53.7664 33.4948 53.3727 33.8789 52.9502C34.263 52.5277 34.6183 52.0859 34.9448 51.625H36.875V58.0205C35.665 58.347 34.4455 58.5871 33.2163 58.7407C31.9871 58.8944 30.7484 58.9808 29.5 59C26.792 59 24.18 58.6543 21.6641 57.9629C19.1481 57.2715 16.7954 56.2824 14.606 54.9956C12.4165 53.7088 10.4287 52.1724 8.64258 50.3862C6.85645 48.6001 5.31999 46.6027 4.0332 44.394C2.74642 42.1854 1.75732 39.8423 1.06592 37.3647C0.374512 34.8872 0.0192057 32.2656 0 29.5C0 26.792 0.345703 24.18 1.03711 21.6641C1.72852 19.1481 2.71761 16.7954 4.00439 14.606C5.29118 12.4165 6.82764 10.4287 8.61377 8.64258C10.3999 6.85645 12.3973 5.31999 14.606 4.0332C16.8146 2.74642 19.1577 1.75732 21.6353 1.06592C24.1128 0.374512 26.7344 0.0192057 29.5 0ZM21.0591 5.09912C19.4266 5.65609 17.8805 6.3763 16.4209 7.25977C14.9613 8.14323 13.5881 9.15153 12.3013 10.2847C11.0145 11.4178 9.87175 12.6662 8.87305 14.0298C7.87435 15.3934 6.98128 16.8626 6.19385 18.4375H15.7871C15.9984 17.3044 16.2577 16.152 16.5649 14.9805C16.8722 13.8089 17.2467 12.647 17.6885 11.4946C18.1302 10.3423 18.6296 9.22835 19.1865 8.15283C19.7435 7.07731 20.3677 6.05941 21.0591 5.09912ZM21.0591 53.9009C20.3677 52.9598 19.7435 51.9515 19.1865 50.876C18.6296 49.8005 18.1398 48.6865 17.7173 47.5342C17.2948 46.3818 16.9202 45.2199 16.5938 44.0483C16.2673 42.8768 15.9984 41.7148 15.7871 40.5625H6.19385C6.94287 42.1182 7.82633 43.5778 8.84424 44.9414C9.86214 46.305 11.0145 47.563 12.3013 48.7153C13.5881 49.8677 14.9517 50.876 16.3921 51.7402C17.8325 52.6045 19.3882 53.3247 21.0591 53.9009ZM15.2109 36.875C15.0573 35.6458 14.9421 34.4263 14.8652 33.2163C14.7884 32.0063 14.75 30.7676 14.75 29.5C14.75 28.2516 14.7884 27.0225 14.8652 25.8125C14.9421 24.6025 15.0573 23.3734 15.2109 22.125H4.75342C4.04281 24.4873 3.6875 26.9456 3.6875 29.5C3.6875 32.0544 4.04281 34.5127 4.75342 36.875H15.2109ZM39.439 18.4375C39.2853 17.6885 39.0645 16.805 38.7764 15.7871C38.4883 14.7692 38.133 13.7129 37.7104 12.6182C37.2879 11.5234 36.8078 10.4479 36.27 9.3916C35.7323 8.33529 35.1081 7.375 34.3975 6.51074C33.6868 5.64648 32.9378 4.96468 32.1504 4.46533C31.363 3.96598 30.4795 3.70671 29.5 3.6875C28.5589 3.6875 27.6851 3.94678 26.8784 4.46533C26.0718 4.98389 25.3132 5.66569 24.6025 6.51074C23.8919 7.35579 23.2773 8.30648 22.7588 9.36279C22.2402 10.4191 21.7505 11.5042 21.2896 12.6182C20.8286 13.7321 20.4733 14.7884 20.2236 15.7871C19.974 16.7858 19.7531 17.6693 19.561 18.4375H39.439ZM52.8062 18.4375C52.0571 16.8818 51.1737 15.4222 50.1558 14.0586C49.1379 12.695 47.9855 11.437 46.6987 10.2847C45.4119 9.13232 44.0483 8.12402 42.6079 7.25977C41.1675 6.39551 39.6118 5.67529 37.9409 5.09912C38.6323 6.0402 39.2565 7.0485 39.8135 8.12402C40.3704 9.19954 40.8602 10.3135 41.2827 11.4658C41.7052 12.6182 42.0798 13.7801 42.4062 14.9517C42.7327 16.1232 43.0016 17.2852 43.2129 18.4375H52.8062ZM44.25 44.25H55.3125V47.9375H44.25V59H40.5625V47.9375H29.5V44.25H40.5625V33.1875H44.25V44.25Z" fill="#999999"/>
</svg>
