<svg width="46" height="45" viewBox="0 0 46 45" fill="none" xmlns="http://www.w3.org/2000/svg">
<path d="M23 13.8462C24.7429 13.8462 26.4143 13.1168 27.6467 11.8184C28.8791 10.5201 29.5714 8.75919 29.5714 6.92308C29.5714 5.08696 28.8791 3.32605 27.6467 2.02772C26.4143 0.729393 24.7429 0 23 0C21.2571 0 19.5857 0.729393 18.3533 2.02772C17.1209 3.32605 16.4286 5.08696 16.4286 6.92308C16.4286 8.75919 17.1209 10.5201 18.3533 11.8184C19.5857 13.1168 21.2571 13.8462 23 13.8462ZM13.1429 7.78846C13.1429 8.58397 12.9941 9.37169 12.7052 10.1066C12.4162 10.8416 11.9927 11.5094 11.4587 12.0719C10.9248 12.6344 10.2909 13.0806 9.59329 13.385C8.89567 13.6895 8.14796 13.8462 7.39286 13.8462C6.63776 13.8462 5.89005 13.6895 5.19243 13.385C4.49481 13.0806 3.86093 12.6344 3.32699 12.0719C2.79306 11.5094 2.36951 10.8416 2.08055 10.1066C1.79159 9.37169 1.64286 8.58397 1.64286 7.78846C1.64286 6.18186 2.24866 4.64106 3.32699 3.50503C4.40533 2.36899 5.86786 1.73077 7.39286 1.73077C8.91785 1.73077 10.3804 2.36899 11.4587 3.50503C12.5371 4.64106 13.1429 6.18186 13.1429 7.78846ZM44.3571 7.78846C44.3571 8.58397 44.2084 9.37169 43.9194 10.1066C43.6305 10.8416 43.2069 11.5094 42.673 12.0719C42.1391 12.6344 41.5052 13.0806 40.8076 13.385C40.11 13.6895 39.3622 13.8462 38.6071 13.8462C37.852 13.8462 37.1043 13.6895 36.4067 13.385C35.7091 13.0806 35.0752 12.6344 34.5413 12.0719C34.0073 11.5094 33.5838 10.8416 33.2948 10.1066C33.0059 9.37169 32.8571 8.58397 32.8571 7.78846C32.8571 6.18186 33.4629 4.64106 34.5413 3.50503C35.6196 2.36899 37.0821 1.73077 38.6071 1.73077C40.1321 1.73077 41.5947 2.36899 42.673 3.50503C43.7513 4.64106 44.3571 6.18186 44.3571 7.78846ZM12.1194 17.3077C11.1845 18.5345 10.6761 20.0614 10.6786 21.6346V34.6154C10.6786 36.7529 11.1681 38.7692 12.0372 40.5467C10.7851 41.2403 9.38427 41.5815 7.97028 41.5372C6.5563 41.493 5.17713 41.0647 3.96636 40.294C2.75559 39.5234 1.75427 38.4363 1.05938 37.1382C0.364484 35.8401 -0.000423384 34.3749 3.68645e-07 32.8846V21.6346C3.68645e-07 20.487 0.432716 19.3865 1.20295 18.575C1.97319 17.7636 3.01786 17.3077 4.10714 17.3077H12.1194ZM33.9628 40.5467C34.8585 38.7122 35.3243 36.6784 35.3214 34.6154V21.6346C35.3214 19.9973 34.7826 18.4933 33.8806 17.3077H41.8929C42.9821 17.3077 44.0268 17.7636 44.797 18.575C45.5673 19.3865 46 20.487 46 21.6346V32.8846C46.0004 34.3749 45.6355 35.8401 44.9406 37.1382C44.2457 38.4363 43.2444 39.5234 42.0336 40.294C40.8229 41.0647 39.4437 41.493 38.0297 41.5372C36.6157 41.5815 35.2149 41.2403 33.9628 40.5467ZM17.25 17.3077C16.1607 17.3077 15.1161 17.7636 14.3458 18.575C13.5756 19.3865 13.1429 20.487 13.1429 21.6346V34.6154C13.1429 37.3696 14.1814 40.0109 16.0299 41.9584C17.8785 43.9059 20.3857 45 23 45C25.6143 45 28.1215 43.9059 29.9701 41.9584C31.8186 40.0109 32.8571 37.3696 32.8571 34.6154V21.6346C32.8571 20.487 32.4244 19.3865 31.6542 18.575C30.884 17.7636 29.8393 17.3077 28.75 17.3077H17.25Z" fill="#2274AC"/>
</svg>
